<svg width="70" height="47" viewBox="0 0 70 47" fill="none" xmlns="http://www.w3.org/2000/svg">
<path d="M25 33V13L22 16V30L25 33Z" fill="#94082A"/>
<path d="M18.5 26V20L15.5 23L18.5 26Z" fill="#94082A"/>
<path d="M25 33V13L22 16V30L25 33Z" stroke="#94082A"/>
<path d="M18.5 26V20L15.5 23L18.5 26Z" stroke="#94082A"/>
<path d="M31 14V7L35.5 9.5L31 14Z" fill="#94082A"/>
<path d="M31 30.5V40L36.5 35.5L31 30.5Z" fill="#94082A"/>
<path d="M31 14V7L35.5 9.5L31 14Z" stroke="#94082A"/>
<path d="M31 30.5V40L36.5 35.5L31 30.5Z" stroke="#94082A"/>
<path d="M23 2.5C34.2714 2.5 43.5 11.8511 43.5 23.5C43.5 35.1489 34.2714 44.5 23 44.5C11.7286 44.5 2.5 35.1489 2.5 23.5C2.5 11.8511 11.7286 2.5 23 2.5Z" stroke="#94082A" stroke-width="5"/>
<path d="M47 0C59.7025 0 70 10.5213 70 23.5L69.9922 24.1064C69.6774 36.8049 59.5041 47 47 47L46.4062 46.9922C40.4347 46.8376 35.0296 44.3567 31.0244 40.4043C32.6189 39.6935 34.093 38.7628 35.4111 37.6523C38.5567 40.3714 42.6107 42 47 42C56.8403 42 65 33.8192 65 23.5C65 13.1808 56.8403 5 47 5C42.611 5 38.5566 6.62786 35.4111 9.34668C34.0931 8.23627 32.6188 7.30546 31.0244 6.59473C35.1619 2.51202 40.7937 1.12574e-07 47 0Z" fill="#94082A"/>
<rect x="30.6138" y="22.6097" width="15.6128" height="16.0986" transform="rotate(-44.7201 30.6138 22.6097)" fill="#94082A"/>
</svg>
